<mxfile host="Electron" modified="2024-02-02T13:53:04.468Z" agent="Mozilla/5.0 (Windows NT 10.0; Win64; x64) AppleWebKit/537.36 (KHTML, like Gecko) draw.io/22.0.2 Chrome/114.0.5735.289 Electron/25.8.4 Safari/537.36" etag="WwsB533Lv-hCeLiVtXnN" version="22.0.2" type="device">
  <diagram id="RoFN31DEDuAoprLHtcjy" name="Page-1">
    <mxGraphModel dx="714" dy="418" grid="1" gridSize="10" guides="1" tooltips="1" connect="1" arrows="1" fold="1" page="0" pageScale="1" pageWidth="827" pageHeight="1169" math="0" shadow="0">
      <root>
        <mxCell id="0" />
        <mxCell id="1" parent="0" />
        <mxCell id="3Ych9QoQo4VoyjM5WHYG-4" value="" style="rounded=0;whiteSpace=wrap;html=1;fillColor=none;dashed=1;" parent="1" vertex="1">
          <mxGeometry x="140" y="210" width="520" height="400" as="geometry" />
        </mxCell>
        <mxCell id="NrXn7nHfLIqUMkxgtaWz-15" value="" style="edgeStyle=orthogonalEdgeStyle;rounded=0;orthogonalLoop=1;jettySize=auto;html=1;entryX=0.5;entryY=0;entryDx=0;entryDy=0;exitX=1;exitY=0.5;exitDx=0;exitDy=0;" parent="1" source="NrXn7nHfLIqUMkxgtaWz-2" target="NrXn7nHfLIqUMkxgtaWz-3" edge="1">
          <mxGeometry relative="1" as="geometry" />
        </mxCell>
        <mxCell id="NrXn7nHfLIqUMkxgtaWz-2" value="Empty OS bucket" style="rounded=1;whiteSpace=wrap;html=1;glass=0;fillColor=#ffe6cc;strokeColor=#d79b00;" parent="1" vertex="1">
          <mxGeometry x="160" y="230" width="80" height="60" as="geometry" />
        </mxCell>
        <mxCell id="NrXn7nHfLIqUMkxgtaWz-16" value="" style="edgeStyle=orthogonalEdgeStyle;rounded=0;orthogonalLoop=1;jettySize=auto;html=1;entryX=0.5;entryY=0;entryDx=0;entryDy=0;exitX=1;exitY=0.5;exitDx=0;exitDy=0;" parent="1" source="NrXn7nHfLIqUMkxgtaWz-3" target="NrXn7nHfLIqUMkxgtaWz-4" edge="1">
          <mxGeometry relative="1" as="geometry" />
        </mxCell>
        <mxCell id="NrXn7nHfLIqUMkxgtaWz-3" value="Empty claim certificate bucket" style="rounded=1;whiteSpace=wrap;html=1;fillColor=#dae8fc;strokeColor=#6c8ebf;" parent="1" vertex="1">
          <mxGeometry x="240" y="290" width="80" height="60" as="geometry" />
        </mxCell>
        <mxCell id="NrXn7nHfLIqUMkxgtaWz-17" value="" style="edgeStyle=orthogonalEdgeStyle;rounded=0;orthogonalLoop=1;jettySize=auto;html=1;entryX=0.5;entryY=0;entryDx=0;entryDy=0;exitX=1;exitY=0.5;exitDx=0;exitDy=0;" parent="1" source="NrXn7nHfLIqUMkxgtaWz-4" target="nbG1lQdYn0GSf7l4aML5-1" edge="1">
          <mxGeometry relative="1" as="geometry">
            <mxPoint x="400" y="440" as="targetPoint" />
          </mxGeometry>
        </mxCell>
        <mxCell id="NrXn7nHfLIqUMkxgtaWz-4" value="Detach existing things from infrastructure" style="rounded=1;whiteSpace=wrap;html=1;fillColor=#d5e8d4;strokeColor=#82b366;" parent="1" vertex="1">
          <mxGeometry x="320" y="350" width="80" height="60" as="geometry" />
        </mxCell>
        <mxCell id="3Ych9QoQo4VoyjM5WHYG-3" value="" style="edgeStyle=orthogonalEdgeStyle;rounded=0;orthogonalLoop=1;jettySize=auto;html=1;exitX=1;exitY=0.5;exitDx=0;exitDy=0;entryX=0.5;entryY=0;entryDx=0;entryDy=0;" parent="1" source="nbG1lQdYn0GSf7l4aML5-1" target="NrXn7nHfLIqUMkxgtaWz-7" edge="1">
          <mxGeometry relative="1" as="geometry" />
        </mxCell>
        <mxCell id="NrXn7nHfLIqUMkxgtaWz-7" value="Destroy infrastructure" style="rounded=1;whiteSpace=wrap;html=1;shadow=0;glass=0;sketch=0;fillColor=#f8cecc;strokeColor=#b85450;" parent="1" vertex="1">
          <mxGeometry x="480" y="470" width="80" height="60" as="geometry" />
        </mxCell>
        <mxCell id="3Ych9QoQo4VoyjM5WHYG-5" value="Destroy infrastucture" style="text;html=1;fillColor=#e1d5e7;align=center;verticalAlign=middle;whiteSpace=wrap;rounded=1;dashed=1;fontStyle=1;fontSize=15;strokeColor=none;gradientColor=none;gradientDirection=south;" parent="1" vertex="1">
          <mxGeometry x="287.5" y="160" width="145" height="40" as="geometry" />
        </mxCell>
        <mxCell id="nbG1lQdYn0GSf7l4aML5-1" value="Pulumi login" style="rounded=1;whiteSpace=wrap;html=1;fillColor=#f5f5f5;strokeColor=#666666;fontColor=#333333;" parent="1" vertex="1">
          <mxGeometry x="400" y="410" width="80" height="60" as="geometry" />
        </mxCell>
        <mxCell id="DsLAnTrM9-Dr5WAAFjHc-1" value="" style="endArrow=classic;html=1;rounded=0;entryX=0;entryY=0.5;entryDx=0;entryDy=0;" parent="1" target="NrXn7nHfLIqUMkxgtaWz-2" edge="1">
          <mxGeometry width="50" height="50" relative="1" as="geometry">
            <mxPoint x="40" y="240" as="sourcePoint" />
            <mxPoint x="420" y="310" as="targetPoint" />
          </mxGeometry>
        </mxCell>
        <mxCell id="DsLAnTrM9-Dr5WAAFjHc-2" value="Manual triggering" style="text;html=1;strokeColor=none;fillColor=none;align=center;verticalAlign=middle;whiteSpace=wrap;rounded=0;" parent="1" vertex="1">
          <mxGeometry x="40" y="220" width="100" height="30" as="geometry" />
        </mxCell>
        <mxCell id="5Am2gnvH7Y_rCSVh9jk8-1" value="" style="rounded=0;whiteSpace=wrap;html=1;fillColor=#f5f5f5;fontColor=#333333;strokeColor=#ED7100;strokeWidth=5;" parent="1" vertex="1">
          <mxGeometry x="465" y="700" width="120" height="65" as="geometry" />
        </mxCell>
        <mxCell id="5Am2gnvH7Y_rCSVh9jk8-2" value="" style="rounded=0;whiteSpace=wrap;html=1;fillColor=#f5f5f5;fontColor=#333333;strokeColor=#ED7100;strokeWidth=5;" parent="1" vertex="1">
          <mxGeometry x="455" y="720" width="120" height="65" as="geometry" />
        </mxCell>
        <mxCell id="5Am2gnvH7Y_rCSVh9jk8-3" value="Prod" style="text;html=1;strokeColor=none;fillColor=none;align=center;verticalAlign=middle;whiteSpace=wrap;rounded=0;fontSize=14;fontStyle=1;fontColor=#000000;" parent="1" vertex="1">
          <mxGeometry x="455" y="720" width="40" height="20" as="geometry" />
        </mxCell>
        <mxCell id="5Am2gnvH7Y_rCSVh9jk8-4" value="Dev" style="text;html=1;strokeColor=none;fillColor=none;align=center;verticalAlign=middle;whiteSpace=wrap;rounded=0;fontSize=14;fontStyle=1;fontColor=#000000;" parent="1" vertex="1">
          <mxGeometry x="465" y="700" width="40" height="20" as="geometry" />
        </mxCell>
        <mxCell id="5Am2gnvH7Y_rCSVh9jk8-5" value="" style="endArrow=classic;html=1;rounded=0;exitX=0.5;exitY=1;exitDx=0;exitDy=0;entryX=0.458;entryY=0;entryDx=0;entryDy=0;dashed=1;entryPerimeter=0;fillColor=#f8cecc;strokeColor=#b85450;" parent="1" source="NrXn7nHfLIqUMkxgtaWz-7" target="5Am2gnvH7Y_rCSVh9jk8-1" edge="1">
          <mxGeometry width="50" height="50" relative="1" as="geometry">
            <mxPoint x="100" y="280" as="sourcePoint" />
            <mxPoint x="100" y="398" as="targetPoint" />
          </mxGeometry>
        </mxCell>
        <mxCell id="5Am2gnvH7Y_rCSVh9jk8-6" value="" style="sketch=0;points=[[0,0,0],[0.25,0,0],[0.5,0,0],[0.75,0,0],[1,0,0],[0,1,0],[0.25,1,0],[0.5,1,0],[0.75,1,0],[1,1,0],[0,0.25,0],[0,0.5,0],[0,0.75,0],[1,0.25,0],[1,0.5,0],[1,0.75,0]];outlineConnect=0;fontColor=#232F3E;fillColor=#7AA116;strokeColor=#ffffff;dashed=0;verticalLabelPosition=bottom;verticalAlign=top;align=center;html=1;fontSize=12;fontStyle=0;aspect=fixed;shape=mxgraph.aws4.resourceIcon;resIcon=mxgraph.aws4.s3;" parent="1" vertex="1">
          <mxGeometry x="112.5" y="630" width="40" height="40" as="geometry" />
        </mxCell>
        <mxCell id="5Am2gnvH7Y_rCSVh9jk8-7" value="CERT_BUCKET_NAME" style="text;html=1;strokeColor=none;fillColor=none;align=center;verticalAlign=middle;whiteSpace=wrap;rounded=0;" parent="1" vertex="1">
          <mxGeometry x="90" y="670" width="85" height="20" as="geometry" />
        </mxCell>
        <mxCell id="5Am2gnvH7Y_rCSVh9jk8-10" value="" style="sketch=0;points=[[0,0,0],[0.25,0,0],[0.5,0,0],[0.75,0,0],[1,0,0],[0,1,0],[0.25,1,0],[0.5,1,0],[0.75,1,0],[1,1,0],[0,0.25,0],[0,0.5,0],[0,0.75,0],[1,0.25,0],[1,0.5,0],[1,0.75,0]];outlineConnect=0;fontColor=#232F3E;fillColor=#7AA116;strokeColor=#ffffff;dashed=0;verticalLabelPosition=bottom;verticalAlign=top;align=center;html=1;fontSize=12;fontStyle=0;aspect=fixed;shape=mxgraph.aws4.resourceIcon;resIcon=mxgraph.aws4.s3;" parent="1" vertex="1">
          <mxGeometry x="580" y="630" width="40" height="40" as="geometry" />
        </mxCell>
        <mxCell id="5Am2gnvH7Y_rCSVh9jk8-11" value="IAC_BUCKET_NAME" style="text;html=1;strokeColor=none;fillColor=none;align=center;verticalAlign=middle;whiteSpace=wrap;rounded=0;" parent="1" vertex="1">
          <mxGeometry x="557.5" y="670" width="85" height="20" as="geometry" />
        </mxCell>
        <mxCell id="KnWbLHVdXCQX2Vla63T6-1" value="Delete S3 bucket from Pulumi stack" style="rounded=1;whiteSpace=wrap;html=1;shadow=0;glass=0;sketch=0;fillColor=#fff2cc;strokeColor=#d6b656;" vertex="1" parent="1">
          <mxGeometry x="560" y="530" width="80" height="60" as="geometry" />
        </mxCell>
        <mxCell id="KnWbLHVdXCQX2Vla63T6-2" value="" style="endArrow=classic;html=1;rounded=0;exitX=0.5;exitY=1;exitDx=0;exitDy=0;dashed=1;fillColor=#f8cecc;strokeColor=#b85450;" edge="1" parent="1" source="KnWbLHVdXCQX2Vla63T6-1">
          <mxGeometry width="50" height="50" relative="1" as="geometry">
            <mxPoint x="530" y="540" as="sourcePoint" />
            <mxPoint x="600" y="630" as="targetPoint" />
            <Array as="points">
              <mxPoint x="600" y="630" />
              <mxPoint x="600" y="610" />
            </Array>
          </mxGeometry>
        </mxCell>
        <mxCell id="KnWbLHVdXCQX2Vla63T6-3" value="" style="edgeStyle=orthogonalEdgeStyle;rounded=0;orthogonalLoop=1;jettySize=auto;html=1;exitX=1;exitY=0.5;exitDx=0;exitDy=0;entryX=0.5;entryY=0;entryDx=0;entryDy=0;" edge="1" parent="1">
          <mxGeometry relative="1" as="geometry">
            <mxPoint x="560" y="500" as="sourcePoint" />
            <mxPoint x="600" y="530" as="targetPoint" />
          </mxGeometry>
        </mxCell>
        <mxCell id="KnWbLHVdXCQX2Vla63T6-4" value="" style="endArrow=classic;html=1;rounded=0;exitX=0.5;exitY=1;exitDx=0;exitDy=0;entryX=1;entryY=0.5;entryDx=0;entryDy=0;dashed=1;entryPerimeter=0;fillColor=#f8cecc;strokeColor=#b85450;" edge="1" parent="1" target="5Am2gnvH7Y_rCSVh9jk8-6">
          <mxGeometry width="50" height="50" relative="1" as="geometry">
            <mxPoint x="199.41" y="290" as="sourcePoint" />
            <mxPoint x="199.41" y="630" as="targetPoint" />
            <Array as="points">
              <mxPoint x="200" y="650" />
            </Array>
          </mxGeometry>
        </mxCell>
        <mxCell id="KnWbLHVdXCQX2Vla63T6-5" value="" style="endArrow=classic;html=1;rounded=0;exitX=0.5;exitY=1;exitDx=0;exitDy=0;entryX=0.5;entryY=0;entryDx=0;entryDy=0;dashed=1;entryPerimeter=0;fillColor=#f8cecc;strokeColor=#b85450;" edge="1" parent="1" source="NrXn7nHfLIqUMkxgtaWz-3" target="KnWbLHVdXCQX2Vla63T6-6">
          <mxGeometry width="50" height="50" relative="1" as="geometry">
            <mxPoint x="279.5" y="350" as="sourcePoint" />
            <mxPoint x="279.5" y="690" as="targetPoint" />
          </mxGeometry>
        </mxCell>
        <mxCell id="KnWbLHVdXCQX2Vla63T6-6" value="" style="sketch=0;points=[[0,0,0],[0.25,0,0],[0.5,0,0],[0.75,0,0],[1,0,0],[0,1,0],[0.25,1,0],[0.5,1,0],[0.75,1,0],[1,1,0],[0,0.25,0],[0,0.5,0],[0,0.75,0],[1,0.25,0],[1,0.5,0],[1,0.75,0]];outlineConnect=0;fontColor=#232F3E;fillColor=#7AA116;strokeColor=#ffffff;dashed=0;verticalLabelPosition=bottom;verticalAlign=top;align=center;html=1;fontSize=12;fontStyle=0;aspect=fixed;shape=mxgraph.aws4.resourceIcon;resIcon=mxgraph.aws4.s3;" vertex="1" parent="1">
          <mxGeometry x="260" y="630" width="40" height="40" as="geometry" />
        </mxCell>
        <mxCell id="KnWbLHVdXCQX2Vla63T6-7" value="IMAGE_BUCKET_NAME" style="text;html=1;strokeColor=none;fillColor=none;align=center;verticalAlign=middle;whiteSpace=wrap;rounded=0;" vertex="1" parent="1">
          <mxGeometry x="237.5" y="670" width="85" height="20" as="geometry" />
        </mxCell>
        <mxCell id="KnWbLHVdXCQX2Vla63T6-8" value="" style="sketch=0;points=[[0,0,0],[0.25,0,0],[0.5,0,0],[0.75,0,0],[1,0,0],[0,1,0],[0.25,1,0],[0.5,1,0],[0.75,1,0],[1,1,0],[0,0.25,0],[0,0.5,0],[0,0.75,0],[1,0.25,0],[1,0.5,0],[1,0.75,0]];outlineConnect=0;fontColor=#232F3E;fillColor=#7AA116;strokeColor=#ffffff;dashed=0;verticalLabelPosition=bottom;verticalAlign=top;align=center;html=1;fontSize=12;fontStyle=0;aspect=fixed;shape=mxgraph.aws4.resourceIcon;resIcon=mxgraph.aws4.iot_core;" vertex="1" parent="1">
          <mxGeometry x="382.5" y="630" width="40" height="40" as="geometry" />
        </mxCell>
        <mxCell id="KnWbLHVdXCQX2Vla63T6-9" value="AWS IoT Core" style="text;html=1;strokeColor=none;fillColor=none;align=center;verticalAlign=middle;whiteSpace=wrap;rounded=0;" vertex="1" parent="1">
          <mxGeometry x="360" y="670" width="85" height="20" as="geometry" />
        </mxCell>
        <mxCell id="KnWbLHVdXCQX2Vla63T6-10" value="" style="endArrow=classic;html=1;rounded=0;exitX=0.5;exitY=1;exitDx=0;exitDy=0;entryX=0;entryY=0.5;entryDx=0;entryDy=0;dashed=1;entryPerimeter=0;fillColor=#f8cecc;strokeColor=#b85450;" edge="1" parent="1" source="NrXn7nHfLIqUMkxgtaWz-4" target="KnWbLHVdXCQX2Vla63T6-8">
          <mxGeometry width="50" height="50" relative="1" as="geometry">
            <mxPoint x="290" y="360" as="sourcePoint" />
            <mxPoint x="290" y="640" as="targetPoint" />
            <Array as="points">
              <mxPoint x="360" y="650" />
            </Array>
          </mxGeometry>
        </mxCell>
        <mxCell id="KnWbLHVdXCQX2Vla63T6-12" value="" style="endArrow=none;html=1;rounded=0;exitX=0.5;exitY=1;exitDx=0;exitDy=0;dashed=1;endFill=0;" edge="1" parent="1" source="nbG1lQdYn0GSf7l4aML5-1">
          <mxGeometry width="50" height="50" relative="1" as="geometry">
            <mxPoint x="370" y="420" as="sourcePoint" />
            <mxPoint x="510" y="650" as="targetPoint" />
            <Array as="points">
              <mxPoint x="440" y="650" />
            </Array>
          </mxGeometry>
        </mxCell>
        <mxCell id="KnWbLHVdXCQX2Vla63T6-13" value="" style="curved=1;endArrow=none;html=1;rounded=0;endFill=0;dashed=1;" edge="1" parent="1">
          <mxGeometry width="50" height="50" relative="1" as="geometry">
            <mxPoint x="510" y="650" as="sourcePoint" />
            <mxPoint x="530" y="650" as="targetPoint" />
            <Array as="points">
              <mxPoint x="520" y="640" />
            </Array>
          </mxGeometry>
        </mxCell>
        <mxCell id="KnWbLHVdXCQX2Vla63T6-15" value="" style="endArrow=classic;html=1;rounded=0;entryX=0;entryY=0.5;entryDx=0;entryDy=0;entryPerimeter=0;dashed=1;" edge="1" parent="1" target="5Am2gnvH7Y_rCSVh9jk8-10">
          <mxGeometry width="50" height="50" relative="1" as="geometry">
            <mxPoint x="530" y="650" as="sourcePoint" />
            <mxPoint x="400" y="600" as="targetPoint" />
          </mxGeometry>
        </mxCell>
        <mxCell id="KnWbLHVdXCQX2Vla63T6-16" value="Login to S3" style="text;html=1;strokeColor=none;fillColor=none;align=left;verticalAlign=middle;whiteSpace=wrap;rounded=0;rotation=-90;" vertex="1" parent="1">
          <mxGeometry x="370" y="530" width="120" height="20" as="geometry" />
        </mxCell>
      </root>
    </mxGraphModel>
  </diagram>
</mxfile>
